<svg width="1282" height="554" viewBox="0 0 1282 554" fill="none" xmlns="http://www.w3.org/2000/svg">
<path opacity="0.5" d="M355.211 200.159L211.935 200.162L283.574 85.889L317.908 31.1211C334.488 4.67317 375.936 4.67317 392.513 31.1211L426.843 85.889L498.486 200.162L355.211 200.159Z" fill="url(#paint0_linear_12_4)"/>
<path opacity="0.5" d="M1112.28 550.256L969 550.259L1040.64 435.986L1074.97 381.218C1091.55 354.77 1133 354.77 1149.58 381.218L1183.91 435.986L1255.55 550.259L1112.28 550.256Z" fill="url(#paint1_linear_12_4)"/>
<path opacity="0.5" d="M224.335 199.816H122L173.171 118.194L197.694 79.0764C209.536 60.186 239.142 60.186 250.98 79.0764L275.503 118.194L326.674 199.816H224.335Z" fill="url(#paint2_linear_12_4)"/>
<path opacity="0.5" d="M924.022 227.995L778.025 228L851.029 111.231L886.014 55.2685C902.908 28.2438 945.146 28.2438 962.036 55.2685L997.021 111.231L1070.02 228L924.022 227.995Z" fill="url(#paint3_linear_12_4)"/>
<path opacity="0.5" d="M166.335 550.256L64 550.259L115.171 468.637L139.694 429.519C151.536 410.629 181.142 410.629 192.98 429.519L217.503 468.637L268.674 550.259L166.335 550.256Z" fill="url(#paint4_linear_12_4)"/>
<path opacity="0.5" d="M1121.36 227.904L1019.02 227.908L1070.2 146.286L1094.72 107.168C1106.56 88.2774 1136.17 88.2774 1148 107.168L1172.53 146.286L1223.7 227.908L1121.36 227.904Z" fill="url(#paint5_linear_12_4)"/>
<path opacity="0.5" d="M821.335 550.256L719 550.259L770.171 468.637L794.694 429.519C806.536 410.629 836.142 410.629 847.98 429.519L872.503 468.637L923.674 550.259L821.335 550.256Z" fill="url(#paint6_linear_12_4)"/>
<defs>
<linearGradient id="paint0_linear_12_4" x1="355.21" y1="206.264" x2="355.21" y2="-87.8069" gradientUnits="userSpaceOnUse">
<stop offset="1.06556e-07" stop-color="white"/>
<stop offset="0.00336425" stop-color="#FFFFFE"/>
<stop offset="0.1724" stop-color="#F6FFD1"/>
<stop offset="0.3424" stop-color="#EEFFAB"/>
<stop offset="0.511" stop-color="#E8FF8E"/>
<stop offset="0.6777" stop-color="#E4FF7A"/>
<stop offset="0.8417" stop-color="#E2FF6D"/>
<stop offset="1" stop-color="#E1FF69"/>
</linearGradient>
<linearGradient id="paint1_linear_12_4" x1="1112.28" y1="556.36" x2="1112.28" y2="262.29" gradientUnits="userSpaceOnUse">
<stop offset="1.06556e-07" stop-color="white"/>
<stop offset="0.00336425" stop-color="#FFFFFE"/>
<stop offset="0.1724" stop-color="#F6FFD1"/>
<stop offset="0.3424" stop-color="#EEFFAB"/>
<stop offset="0.511" stop-color="#E8FF8E"/>
<stop offset="0.6777" stop-color="#E4FF7A"/>
<stop offset="0.8417" stop-color="#E2FF6D"/>
<stop offset="1" stop-color="#E1FF69"/>
</linearGradient>
<linearGradient id="paint2_linear_12_4" x1="224.336" y1="204.176" x2="224.336" y2="-5.86763" gradientUnits="userSpaceOnUse">
<stop offset="1.06556e-07" stop-color="white"/>
<stop offset="0.00336425" stop-color="#FFFFFE"/>
<stop offset="0.1724" stop-color="#F6FFD1"/>
<stop offset="0.3424" stop-color="#EEFFAB"/>
<stop offset="0.511" stop-color="#E8FF8E"/>
<stop offset="0.6777" stop-color="#E4FF7A"/>
<stop offset="0.8417" stop-color="#E2FF6D"/>
<stop offset="1" stop-color="#E1FF69"/>
</linearGradient>
<linearGradient id="paint3_linear_12_4" x1="924.02" y1="234.232" x2="924.02" y2="-66.2578" gradientUnits="userSpaceOnUse">
<stop offset="1.06556e-07" stop-color="white"/>
<stop offset="0.00336425" stop-color="#FFFFFE"/>
<stop offset="0.1724" stop-color="#F6FFD1"/>
<stop offset="0.3424" stop-color="#EEFFAB"/>
<stop offset="0.511" stop-color="#E8FF8E"/>
<stop offset="0.6777" stop-color="#E4FF7A"/>
<stop offset="0.8417" stop-color="#E2FF6D"/>
<stop offset="1" stop-color="#E1FF69"/>
</linearGradient>
<linearGradient id="paint4_linear_12_4" x1="166.335" y1="554.617" x2="166.335" y2="344.573" gradientUnits="userSpaceOnUse">
<stop offset="1.06556e-07" stop-color="white"/>
<stop offset="0.00336425" stop-color="#FFFFFE"/>
<stop offset="0.1724" stop-color="#F6FFD1"/>
<stop offset="0.3424" stop-color="#EEFFAB"/>
<stop offset="0.511" stop-color="#E8FF8E"/>
<stop offset="0.6777" stop-color="#E4FF7A"/>
<stop offset="0.8417" stop-color="#E2FF6D"/>
<stop offset="1" stop-color="#E1FF69"/>
</linearGradient>
<linearGradient id="paint5_linear_12_4" x1="1121.36" y1="232.264" x2="1121.36" y2="22.2203" gradientUnits="userSpaceOnUse">
<stop offset="1.06556e-07" stop-color="white"/>
<stop offset="0.00336425" stop-color="#FFFFFE"/>
<stop offset="0.1724" stop-color="#F6FFD1"/>
<stop offset="0.3424" stop-color="#EEFFAB"/>
<stop offset="0.511" stop-color="#E8FF8E"/>
<stop offset="0.6777" stop-color="#E4FF7A"/>
<stop offset="0.8417" stop-color="#E2FF6D"/>
<stop offset="1" stop-color="#E1FF69"/>
</linearGradient>
<linearGradient id="paint6_linear_12_4" x1="821.336" y1="554.617" x2="821.336" y2="344.573" gradientUnits="userSpaceOnUse">
<stop offset="1.06556e-07" stop-color="white"/>
<stop offset="0.00336425" stop-color="#FFFFFE"/>
<stop offset="0.1724" stop-color="#F6FFD1"/>
<stop offset="0.3424" stop-color="#EEFFAB"/>
<stop offset="0.511" stop-color="#E8FF8E"/>
<stop offset="0.6777" stop-color="#E4FF7A"/>
<stop offset="0.8417" stop-color="#E2FF6D"/>
<stop offset="1" stop-color="#E1FF69"/>
</linearGradient>
</defs>
</svg>
