<svg width="95" height="32" viewBox="0 0 95 32" fill="none" xmlns="http://www.w3.org/2000/svg">
<mask id="path-1-outside-1_14_78" maskUnits="userSpaceOnUse" x="45" y="8" width="50" height="22" fill="black">
<rect fill="white" x="45" y="8" width="50" height="22"/>
<path d="M52.46 24H50.66V11.3H46.2V9.72H56.9V11.3H52.46V24ZM59.3619 22.92C59.3619 22.4267 59.4819 22.08 59.7219 21.88C59.9619 21.68 60.2485 21.58 60.5819 21.58C60.9285 21.58 61.2219 21.68 61.4619 21.88C61.7152 22.08 61.8419 22.4267 61.8419 22.92C61.8419 23.4 61.7152 23.7467 61.4619 23.96C61.2219 24.1733 60.9285 24.28 60.5819 24.28C60.2485 24.28 59.9619 24.1733 59.7219 23.96C59.4819 23.7467 59.3619 23.4 59.3619 22.92ZM71.9734 13.08C72.1734 13.08 72.3868 13.0933 72.6134 13.12C72.8534 13.1333 73.0601 13.16 73.2334 13.2L73.0134 14.82C72.8401 14.78 72.6468 14.7467 72.4334 14.72C72.2334 14.6933 72.0401 14.68 71.8534 14.68C71.4401 14.68 71.0468 14.7667 70.6734 14.94C70.3001 15.1133 69.9668 15.36 69.6734 15.68C69.3801 15.9867 69.1468 16.36 68.9734 16.8C68.8134 17.24 68.7334 17.7333 68.7334 18.28V24H66.9734V13.28H68.4134L68.6134 15.24H68.6934C68.9201 14.84 69.1934 14.48 69.5134 14.16C69.8334 13.8267 70.2001 13.5667 70.6134 13.38C71.0268 13.18 71.4801 13.08 71.9734 13.08ZM78.9952 13.28V24H77.2352V13.28H78.9952ZM78.1352 9.26C78.4018 9.26 78.6352 9.35333 78.8352 9.54C79.0485 9.71333 79.1552 9.99333 79.1552 10.38C79.1552 10.7533 79.0485 11.0333 78.8352 11.22C78.6352 11.4067 78.4018 11.5 78.1352 11.5C77.8418 11.5 77.5952 11.4067 77.3952 11.22C77.1952 11.0333 77.0952 10.7533 77.0952 10.38C77.0952 9.99333 77.1952 9.71333 77.3952 9.54C77.5952 9.35333 77.8418 9.26 78.1352 9.26ZM89.4914 13.08C90.8114 13.08 91.8714 13.54 92.6714 14.46C93.4847 15.38 93.8914 16.7667 93.8914 18.62C93.8914 19.8333 93.7047 20.86 93.3314 21.7C92.9714 22.5267 92.4581 23.1533 91.7914 23.58C91.1381 23.9933 90.3647 24.2 89.4714 24.2C88.9247 24.2 88.4381 24.1267 88.0114 23.98C87.5847 23.8333 87.2181 23.6467 86.9114 23.42C86.6181 23.18 86.3647 22.92 86.1514 22.64H86.0314C86.0581 22.8667 86.0847 23.1533 86.1114 23.5C86.1381 23.8467 86.1514 24.1467 86.1514 24.4V28.8H84.3914V13.28H85.8314L86.0714 14.74H86.1514C86.3647 14.4333 86.6181 14.1533 86.9114 13.9C87.2181 13.6467 87.5781 13.4467 87.9914 13.3C88.4181 13.1533 88.9181 13.08 89.4914 13.08ZM89.1714 14.56C88.4514 14.56 87.8714 14.7 87.4314 14.98C86.9914 15.2467 86.6714 15.6533 86.4714 16.2C86.2714 16.7467 86.1647 17.44 86.1514 18.28V18.62C86.1514 19.5 86.2447 20.2467 86.4314 20.86C86.6181 21.4733 86.9314 21.94 87.3714 22.26C87.8247 22.58 88.4381 22.74 89.2114 22.74C89.8647 22.74 90.3981 22.56 90.8114 22.2C91.2381 21.84 91.5514 21.3533 91.7514 20.74C91.9647 20.1133 92.0714 19.4 92.0714 18.6C92.0714 17.3733 91.8314 16.3933 91.3514 15.66C90.8847 14.9267 90.1581 14.56 89.1714 14.56Z"/>
</mask>
<path d="M52.46 24H50.66V11.3H46.2V9.72H56.9V11.3H52.46V24ZM59.3619 22.92C59.3619 22.4267 59.4819 22.08 59.7219 21.88C59.9619 21.68 60.2485 21.58 60.5819 21.58C60.9285 21.58 61.2219 21.68 61.4619 21.88C61.7152 22.08 61.8419 22.4267 61.8419 22.92C61.8419 23.4 61.7152 23.7467 61.4619 23.96C61.2219 24.1733 60.9285 24.28 60.5819 24.28C60.2485 24.28 59.9619 24.1733 59.7219 23.96C59.4819 23.7467 59.3619 23.4 59.3619 22.92ZM71.9734 13.08C72.1734 13.08 72.3868 13.0933 72.6134 13.12C72.8534 13.1333 73.0601 13.16 73.2334 13.2L73.0134 14.82C72.8401 14.78 72.6468 14.7467 72.4334 14.72C72.2334 14.6933 72.0401 14.68 71.8534 14.68C71.4401 14.68 71.0468 14.7667 70.6734 14.94C70.3001 15.1133 69.9668 15.36 69.6734 15.68C69.3801 15.9867 69.1468 16.36 68.9734 16.8C68.8134 17.24 68.7334 17.7333 68.7334 18.28V24H66.9734V13.28H68.4134L68.6134 15.24H68.6934C68.9201 14.84 69.1934 14.48 69.5134 14.16C69.8334 13.8267 70.2001 13.5667 70.6134 13.38C71.0268 13.18 71.4801 13.08 71.9734 13.08ZM78.9952 13.28V24H77.2352V13.28H78.9952ZM78.1352 9.26C78.4018 9.26 78.6352 9.35333 78.8352 9.54C79.0485 9.71333 79.1552 9.99333 79.1552 10.38C79.1552 10.7533 79.0485 11.0333 78.8352 11.22C78.6352 11.4067 78.4018 11.5 78.1352 11.5C77.8418 11.5 77.5952 11.4067 77.3952 11.22C77.1952 11.0333 77.0952 10.7533 77.0952 10.38C77.0952 9.99333 77.1952 9.71333 77.3952 9.54C77.5952 9.35333 77.8418 9.26 78.1352 9.26ZM89.4914 13.08C90.8114 13.08 91.8714 13.54 92.6714 14.46C93.4847 15.38 93.8914 16.7667 93.8914 18.62C93.8914 19.8333 93.7047 20.86 93.3314 21.7C92.9714 22.5267 92.4581 23.1533 91.7914 23.58C91.1381 23.9933 90.3647 24.2 89.4714 24.2C88.9247 24.2 88.4381 24.1267 88.0114 23.98C87.5847 23.8333 87.2181 23.6467 86.9114 23.42C86.6181 23.18 86.3647 22.92 86.1514 22.64H86.0314C86.0581 22.8667 86.0847 23.1533 86.1114 23.5C86.1381 23.8467 86.1514 24.1467 86.1514 24.4V28.8H84.3914V13.28H85.8314L86.0714 14.74H86.1514C86.3647 14.4333 86.6181 14.1533 86.9114 13.9C87.2181 13.6467 87.5781 13.4467 87.9914 13.3C88.4181 13.1533 88.9181 13.08 89.4914 13.08ZM89.1714 14.56C88.4514 14.56 87.8714 14.7 87.4314 14.98C86.9914 15.2467 86.6714 15.6533 86.4714 16.2C86.2714 16.7467 86.1647 17.44 86.1514 18.28V18.62C86.1514 19.5 86.2447 20.2467 86.4314 20.86C86.6181 21.4733 86.9314 21.94 87.3714 22.26C87.8247 22.58 88.4381 22.74 89.2114 22.74C89.8647 22.74 90.3981 22.56 90.8114 22.2C91.2381 21.84 91.5514 21.3533 91.7514 20.74C91.9647 20.1133 92.0714 19.4 92.0714 18.6C92.0714 17.3733 91.8314 16.3933 91.3514 15.66C90.8847 14.9267 90.1581 14.56 89.1714 14.56Z" fill="#C3E245"/>
<path d="M52.46 24V24.5H52.96V24H52.46ZM50.66 24H50.16V24.5H50.66V24ZM50.66 11.3H51.16V10.8H50.66V11.3ZM46.2 11.3H45.7V11.8H46.2V11.3ZM46.2 9.72V9.22H45.7V9.72H46.2ZM56.9 9.72H57.4V9.22H56.9V9.72ZM56.9 11.3V11.8H57.4V11.3H56.9ZM52.46 11.3V10.8H51.96V11.3H52.46ZM52.46 24V23.5H50.66V24V24.5H52.46V24ZM50.66 24H51.16V11.3H50.66H50.16V24H50.66ZM50.66 11.3V10.8H46.2V11.3V11.8H50.66V11.3ZM46.2 11.3H46.7V9.72H46.2H45.7V11.3H46.2ZM46.2 9.72V10.22H56.9V9.72V9.22H46.2V9.72ZM56.9 9.72H56.4V11.3H56.9H57.4V9.72H56.9ZM56.9 11.3V10.8H52.46V11.3V11.8H56.9V11.3ZM52.46 11.3H51.96V24H52.46H52.96V11.3H52.46ZM61.4619 21.88L61.1417 22.2642L61.1521 22.2724L61.4619 21.88ZM61.4619 23.96L61.1397 23.5774L61.1297 23.5863L61.4619 23.96ZM59.7219 23.96L59.3897 24.3337L59.7219 23.96ZM59.3619 22.92H59.8619C59.8619 22.4894 59.9685 22.3253 60.042 22.2641L59.7219 21.88L59.4018 21.4959C58.9953 21.8347 58.8619 22.3639 58.8619 22.92H59.3619ZM59.7219 21.88L60.042 22.2641C60.1858 22.1442 60.3571 22.08 60.5819 22.08V21.58V21.08C60.14 21.08 59.7379 21.2158 59.4018 21.4959L59.7219 21.88ZM60.5819 21.58V22.08C60.8253 22.08 61.0016 22.1473 61.1418 22.2641L61.4619 21.88L61.782 21.4959C61.4421 21.2127 61.0318 21.08 60.5819 21.08V21.58ZM61.4619 21.88L61.1521 22.2724C61.2328 22.3362 61.3419 22.4973 61.3419 22.92H61.8419H62.3419C62.3419 22.3561 62.1976 21.8238 61.7717 21.4876L61.4619 21.88ZM61.8419 22.92H61.3419C61.3419 23.3208 61.2369 23.4958 61.1398 23.5775L61.4619 23.96L61.7839 24.3425C62.1935 23.9975 62.3419 23.4792 62.3419 22.92H61.8419ZM61.4619 23.96L61.1297 23.5863C60.9888 23.7115 60.8167 23.78 60.5819 23.78V24.28V24.78C61.0404 24.78 61.4549 24.6352 61.7941 24.3337L61.4619 23.96ZM60.5819 24.28V23.78C60.3659 23.78 60.1988 23.7149 60.0541 23.5863L59.7219 23.96L59.3897 24.3337C59.725 24.6317 60.1312 24.78 60.5819 24.78V24.28ZM59.7219 23.96L60.0541 23.5863C59.9645 23.5067 59.8619 23.3284 59.8619 22.92H59.3619H58.8619C58.8619 23.4716 58.9993 23.9867 59.3897 24.3337L59.7219 23.96ZM72.6134 13.12L72.555 13.6166L72.5703 13.6184L72.5857 13.6192L72.6134 13.12ZM73.2334 13.2L73.7289 13.2673L73.7903 12.8154L73.3459 12.7128L73.2334 13.2ZM73.0134 14.82L72.901 15.3072L73.4351 15.4305L73.5089 14.8873L73.0134 14.82ZM72.4334 14.72L72.3674 15.2156L72.3714 15.2161L72.4334 14.72ZM70.6734 14.94L70.884 15.3935L70.884 15.3935L70.6734 14.94ZM69.6734 15.68L70.0348 16.0257L70.042 16.0179L69.6734 15.68ZM68.9734 16.8L68.5081 16.6167L68.5035 16.6291L68.9734 16.8ZM68.7334 24V24.5H69.2334V24H68.7334ZM66.9734 24H66.4734V24.5H66.9734V24ZM66.9734 13.28V12.78H66.4734V13.28H66.9734ZM68.4134 13.28L68.9109 13.2292L68.865 12.78H68.4134V13.28ZM68.6134 15.24L68.116 15.2908L68.1619 15.74H68.6134V15.24ZM68.6934 15.24V15.74H68.9848L69.1284 15.4865L68.6934 15.24ZM69.5134 14.16L69.8671 14.5136L69.8741 14.5063L69.5134 14.16ZM70.6134 13.38L70.8193 13.8358L70.8312 13.8301L70.6134 13.38ZM71.9734 13.08V13.58C72.1514 13.58 72.3451 13.5919 72.555 13.6166L72.6134 13.12L72.6719 12.6234C72.4284 12.5948 72.1955 12.58 71.9734 12.58V13.08ZM72.6134 13.12L72.5857 13.6192C72.8064 13.6315 72.9832 13.6554 73.121 13.6872L73.2334 13.2L73.3459 12.7128C73.137 12.6646 72.9005 12.6352 72.6412 12.6208L72.6134 13.12ZM73.2334 13.2L72.738 13.1327L72.518 14.7527L73.0134 14.82L73.5089 14.8873L73.7289 13.2673L73.2334 13.2ZM73.0134 14.82L73.1259 14.3328C72.9329 14.2883 72.7224 14.2522 72.4955 14.2239L72.4334 14.72L72.3714 15.2161C72.5712 15.2411 72.7473 15.2717 72.901 15.3072L73.0134 14.82ZM72.4334 14.72L72.4995 14.2244C72.2794 14.195 72.0639 14.18 71.8534 14.18V14.68V15.18C72.0163 15.18 72.1875 15.1916 72.3674 15.2156L72.4334 14.72ZM71.8534 14.68V14.18C71.3677 14.18 70.9025 14.2824 70.4629 14.4865L70.6734 14.94L70.884 15.3935C71.1911 15.2509 71.5125 15.18 71.8534 15.18V14.68ZM70.6734 14.94L70.4629 14.4865C70.0265 14.6891 69.6403 14.9762 69.3049 15.3421L69.6734 15.68L70.042 16.0179C70.2933 15.7438 70.5737 15.5376 70.884 15.3935L70.6734 14.94ZM69.6734 15.68L69.3121 15.3344C68.9691 15.693 68.7026 16.1233 68.5082 16.6167L68.9734 16.8L69.4386 16.9833C69.5909 16.5967 69.7911 16.2803 70.0348 16.0256L69.6734 15.68ZM68.9734 16.8L68.5035 16.6291C68.3206 17.1322 68.2334 17.6846 68.2334 18.28H68.7334H69.2334C69.2334 17.782 69.3063 17.3478 69.4433 16.9709L68.9734 16.8ZM68.7334 18.28H68.2334V24H68.7334H69.2334V18.28H68.7334ZM68.7334 24V23.5H66.9734V24V24.5H68.7334V24ZM66.9734 24H67.4734V13.28H66.9734H66.4734V24H66.9734ZM66.9734 13.28V13.78H68.4134V13.28V12.78H66.9734V13.28ZM68.4134 13.28L67.916 13.3308L68.116 15.2908L68.6134 15.24L69.1109 15.1892L68.9109 13.2292L68.4134 13.28ZM68.6134 15.24V15.74H68.6934V15.24V14.74H68.6134V15.24ZM68.6934 15.24L69.1284 15.4865C69.3333 15.1251 69.5793 14.8012 69.867 14.5136L69.5134 14.16L69.1599 13.8064C68.8075 14.1588 68.5069 14.5549 68.2584 14.9935L68.6934 15.24ZM69.5134 14.16L69.8741 14.5063C70.1508 14.2181 70.4651 13.9956 70.8192 13.8357L70.6134 13.38L70.4076 12.9243C69.9351 13.1377 69.5161 13.4353 69.1527 13.8137L69.5134 14.16ZM70.6134 13.38L70.8312 13.8301C71.1717 13.6653 71.5498 13.58 71.9734 13.58V13.08V12.58C71.4104 12.58 70.8819 12.6947 70.3957 12.9299L70.6134 13.38ZM78.9952 13.28H79.4952V12.78H78.9952V13.28ZM78.9952 24V24.5H79.4952V24H78.9952ZM77.2352 24H76.7352V24.5H77.2352V24ZM77.2352 13.28V12.78H76.7352V13.28H77.2352ZM78.8352 9.54L78.494 9.90553L78.5065 9.91724L78.5199 9.92806L78.8352 9.54ZM78.8352 11.22L78.5059 10.8437L78.4999 10.849L78.494 10.8545L78.8352 11.22ZM77.3952 11.22L77.7363 10.8545L77.7363 10.8545L77.3952 11.22ZM77.3952 9.54L77.7226 9.91784L77.7296 9.91181L77.7363 9.90553L77.3952 9.54ZM78.9952 13.28H78.4952V24H78.9952H79.4952V13.28H78.9952ZM78.9952 24V23.5H77.2352V24V24.5H78.9952V24ZM77.2352 24H77.7352V13.28H77.2352H76.7352V24H77.2352ZM77.2352 13.28V13.78H78.9952V13.28V12.78H77.2352V13.28ZM78.1352 9.26V9.76C78.2716 9.76 78.3839 9.80279 78.494 9.90553L78.8352 9.54L79.1763 9.17447C78.8864 8.90387 78.5321 8.76 78.1352 8.76V9.26ZM78.8352 9.54L78.5199 9.92806C78.5743 9.97227 78.6552 10.0797 78.6552 10.38H79.1552H79.6552C79.6552 9.90696 79.5227 9.4544 79.1505 9.15194L78.8352 9.54ZM79.1552 10.38H78.6552C78.6552 10.6576 78.5789 10.7798 78.5059 10.8437L78.8352 11.22L79.1644 11.5963C79.5181 11.2868 79.6552 10.849 79.6552 10.38H79.1552ZM78.8352 11.22L78.494 10.8545C78.3839 10.9572 78.2716 11 78.1352 11V11.5V12C78.5321 12 78.8864 11.8561 79.1763 11.5855L78.8352 11.22ZM78.1352 11.5V11C77.9585 11 77.8367 10.9481 77.7363 10.8545L77.3952 11.22L77.054 11.5855C77.3537 11.8652 77.7252 12 78.1352 12V11.5ZM77.3952 11.22L77.7363 10.8545C77.6704 10.793 77.5952 10.6671 77.5952 10.38H77.0952H76.5952C76.5952 10.8396 76.7199 11.2737 77.054 11.5855L77.3952 11.22ZM77.0952 10.38H77.5952C77.5952 10.07 77.675 9.95912 77.7226 9.91784L77.3952 9.54L77.0677 9.16215C76.7153 9.46754 76.5952 9.91662 76.5952 10.38H77.0952ZM77.3952 9.54L77.7363 9.90553C77.8367 9.81187 77.9585 9.76 78.1352 9.76V9.26V8.76C77.7252 8.76 77.3537 8.89479 77.054 9.17447L77.3952 9.54ZM92.6714 14.46L92.2941 14.7881L92.2968 14.7912L92.6714 14.46ZM93.3314 21.7L92.8745 21.4969L92.873 21.5004L93.3314 21.7ZM91.7914 23.58L92.0587 24.0025L92.0609 24.0011L91.7914 23.58ZM88.0114 23.98L87.8489 24.4528L87.8489 24.4528L88.0114 23.98ZM86.9114 23.42L86.5948 23.807L86.6043 23.8148L86.6142 23.8221L86.9114 23.42ZM86.1514 22.64L86.5491 22.337L86.399 22.14H86.1514V22.64ZM86.0314 22.64V22.14H85.4691L85.5348 22.6984L86.0314 22.64ZM86.1114 23.5L85.6129 23.5383L85.6129 23.5383L86.1114 23.5ZM86.1514 28.8V29.3H86.6514V28.8H86.1514ZM84.3914 28.8H83.8914V29.3H84.3914V28.8ZM84.3914 13.28V12.78H83.8914V13.28H84.3914ZM85.8314 13.28L86.3248 13.1989L86.2559 12.78H85.8314V13.28ZM86.0714 14.74L85.578 14.8211L85.6469 15.24H86.0714V14.74ZM86.1514 14.74V15.24H86.4127L86.5619 15.0255L86.1514 14.74ZM86.9114 13.9L86.5929 13.5144L86.5846 13.5216L86.9114 13.9ZM87.9914 13.3L87.8289 12.8271L87.8242 12.8288L87.9914 13.3ZM87.4314 14.98L87.6906 15.4077L87.6998 15.4018L87.4314 14.98ZM86.1514 18.28L85.6514 18.2721V18.28H86.1514ZM86.4314 20.86L85.9531 21.0056L85.9531 21.0056L86.4314 20.86ZM87.3714 22.26L87.0773 22.6644L87.0831 22.6685L87.3714 22.26ZM90.8114 22.2L90.4889 21.8178L90.483 21.823L90.8114 22.2ZM91.7514 20.74L91.278 20.5789L91.276 20.585L91.7514 20.74ZM91.3514 15.66L90.9295 15.9285L90.9331 15.9338L91.3514 15.66ZM89.4914 13.08V13.58C90.6802 13.58 91.5976 13.9871 92.2941 14.7881L92.6714 14.46L93.0487 14.1319C92.1452 13.0929 90.9426 12.58 89.4914 12.58V13.08ZM92.6714 14.46L92.2968 14.7912C92.9968 15.583 93.3914 16.8285 93.3914 18.62H93.8914H94.3914C94.3914 16.7048 93.9727 15.177 93.046 14.1288L92.6714 14.46ZM93.8914 18.62H93.3914C93.3914 19.7847 93.2119 20.7378 92.8745 21.4969L93.3314 21.7L93.7883 21.9031C94.1976 20.9822 94.3914 19.882 94.3914 18.62H93.8914ZM93.3314 21.7L92.873 21.5004C92.5469 22.2492 92.0938 22.7929 91.5219 23.1589L91.7914 23.58L92.0609 24.0011C92.8224 23.5138 93.3959 22.8042 93.7898 21.8996L93.3314 21.7ZM91.7914 23.58L91.5241 23.1575C90.9626 23.5127 90.2851 23.7 89.4714 23.7V24.2V24.7C90.4444 24.7 91.3136 24.4739 92.0587 24.0025L91.7914 23.58ZM89.4714 24.2V23.7C88.9687 23.7 88.5386 23.6325 88.1739 23.5072L88.0114 23.98L87.8489 24.4528C88.3376 24.6208 88.8808 24.7 89.4714 24.7V24.2ZM88.0114 23.98L88.1739 23.5072C87.7869 23.3741 87.4675 23.2093 87.2086 23.0179L86.9114 23.42L86.6142 23.8221C86.9686 24.084 87.3825 24.2925 87.8489 24.4528L88.0114 23.98ZM86.9114 23.42L87.228 23.033C86.9626 22.8159 86.7371 22.5836 86.5491 22.337L86.1514 22.64L85.7537 22.943C85.9924 23.2564 86.2735 23.5441 86.5948 23.807L86.9114 23.42ZM86.1514 22.64V22.14H86.0314V22.64V23.14H86.1514V22.64ZM86.0314 22.64L85.5348 22.6984C85.5604 22.9159 85.5865 23.1953 85.6129 23.5383L86.1114 23.5L86.6099 23.4617C86.583 23.1114 86.5557 22.8174 86.528 22.5816L86.0314 22.64ZM86.1114 23.5L85.6129 23.5383C85.6389 23.8766 85.6514 24.1632 85.6514 24.4H86.1514H86.6514C86.6514 24.1302 86.6372 23.8168 86.6099 23.4617L86.1114 23.5ZM86.1514 24.4H85.6514V28.8H86.1514H86.6514V24.4H86.1514ZM86.1514 28.8V28.3H84.3914V28.8V29.3H86.1514V28.8ZM84.3914 28.8H84.8914V13.28H84.3914H83.8914V28.8H84.3914ZM84.3914 13.28V13.78H85.8314V13.28V12.78H84.3914V13.28ZM85.8314 13.28L85.338 13.3611L85.578 14.8211L86.0714 14.74L86.5648 14.6589L86.3248 13.1989L85.8314 13.28ZM86.0714 14.74V15.24H86.1514V14.74V14.24H86.0714V14.74ZM86.1514 14.74L86.5619 15.0255C86.7504 14.7545 86.9753 14.5054 87.2382 14.2784L86.9114 13.9L86.5846 13.5216C86.2608 13.8012 85.9791 14.1122 85.741 14.4545L86.1514 14.74ZM86.9114 13.9L87.2298 14.2855C87.4871 14.073 87.7947 13.9004 88.1586 13.7712L87.9914 13.3L87.8242 12.8288C87.3615 12.993 86.949 13.2204 86.593 13.5145L86.9114 13.9ZM87.9914 13.3L88.1539 13.7728C88.5163 13.6483 88.9591 13.58 89.4914 13.58V13.08V12.58C88.877 12.58 88.3198 12.6584 87.8289 12.8272L87.9914 13.3ZM89.1714 14.56V14.06C88.3912 14.06 87.7083 14.2112 87.163 14.5582L87.4314 14.98L87.6998 15.4018C88.0346 15.1888 88.5116 15.06 89.1714 15.06V14.56ZM87.4314 14.98L87.1723 14.5524C86.6224 14.8856 86.2355 15.3896 86.0018 16.0282L86.4714 16.2L86.941 16.3718C87.1073 15.917 87.3604 15.6077 87.6906 15.4076L87.4314 14.98ZM86.4714 16.2L86.0018 16.0282C85.7762 16.6451 85.6653 17.3987 85.6515 18.2721L86.1514 18.28L86.6513 18.2879C86.6641 17.4813 86.7667 16.8482 86.941 16.3718L86.4714 16.2ZM86.1514 18.28H85.6514V18.62H86.1514H86.6514V18.28H86.1514ZM86.1514 18.62H85.6514C85.6514 19.5323 85.7478 20.3312 85.9531 21.0056L86.4314 20.86L86.9097 20.7144C86.7417 20.1622 86.6514 19.4677 86.6514 18.62H86.1514ZM86.4314 20.86L85.9531 21.0056C86.1655 21.7037 86.5344 22.2696 87.0773 22.6644L87.3714 22.26L87.6655 21.8556C87.3284 21.6104 87.0706 21.243 86.9097 20.7144L86.4314 20.86ZM87.3714 22.26L87.0831 22.6685C87.6481 23.0673 88.3743 23.24 89.2114 23.24V22.74V22.24C88.5019 22.24 88.0014 22.0927 87.6597 21.8515L87.3714 22.26ZM89.2114 22.74V23.24C89.9611 23.24 90.6186 23.031 91.1398 22.577L90.8114 22.2L90.483 21.823C90.1775 22.089 89.7684 22.24 89.2114 22.24V22.74ZM90.8114 22.2L91.1338 22.5821C91.6421 22.1533 92.0025 21.5828 92.2268 20.895L91.7514 20.74L91.276 20.585C91.1003 21.1239 90.834 21.5267 90.489 21.8179L90.8114 22.2ZM91.7514 20.74L92.2247 20.9011C92.459 20.2131 92.5714 19.4438 92.5714 18.6H92.0714H91.5714C91.5714 19.3562 91.4705 20.0136 91.2781 20.5789L91.7514 20.74ZM92.0714 18.6H92.5714C92.5714 17.3134 92.3204 16.2274 91.7698 15.3862L91.3514 15.66L90.9331 15.9338C91.3425 16.5593 91.5714 17.4332 91.5714 18.6H92.0714ZM91.3514 15.66L91.7732 15.3916C91.2011 14.4924 90.3018 14.06 89.1714 14.06V14.56V15.06C90.0144 15.06 90.5684 15.3609 90.9296 15.9284L91.3514 15.66Z" fill="#C3E245" mask="url(#path-1-outside-1_14_78)"/>
<path d="M0 32V28.4444H35V32H0ZM7 24.8889C6.0375 24.8889 5.21354 24.5407 4.52812 23.8444C3.84271 23.1481 3.5 22.3111 3.5 21.3333V8.88889C3.5 7.91111 3.84271 7.07407 4.52812 6.37778C5.21354 5.68148 6.0375 5.33333 7 5.33333H12.25C12.25 3.85185 12.7604 2.59259 13.7812 1.55556C14.8021 0.518519 16.0417 0 17.5 0C18.9583 0 20.1979 0.518519 21.2188 1.55556C22.2396 2.59259 22.75 3.85185 22.75 5.33333H28C28.9625 5.33333 29.7865 5.68148 30.4719 6.37778C31.1573 7.07407 31.5 7.91111 31.5 8.88889V21.3333C31.5 22.3111 31.1573 23.1481 30.4719 23.8444C29.7865 24.5407 28.9625 24.8889 28 24.8889H7ZM26.25 21.3333H28V8.88889H26.25V21.3333ZM14.875 5.33333H20.125C20.125 4.56296 19.8771 3.92593 19.3812 3.42222C18.8854 2.91852 18.2583 2.66667 17.5 2.66667C16.7417 2.66667 16.1146 2.91852 15.6188 3.42222C15.1229 3.92593 14.875 4.56296 14.875 5.33333ZM8.75 21.3333V8.88889H7V21.3333H8.75ZM11.375 8.88889V21.3333H23.625V8.88889H11.375Z" fill="#C3E245"/>
</svg>
